# xmcd CD database file
#
# Track frame offsets:
#	150
#	28498
#	88987
#	135257
#	179563
#	238050
#	296734
#
# Disc length: 4612 seconds
#
# Revision: 0
# Processed by: cddbd v1.5.2PL0 Copyright (c) Steve Scherf et al.
# Submitted via: CDex 1.51
#
DISCID=69120207
DTITLE=Mike Westbrook - Mike Westbrook Live 1972
DYEAR=1972
DGENRE=Jazz
TTITLE0=Travellin'
TTITLE1=Compassion
TTITLE2=Marching Song
TTITLE3=Spaces
TTITLE4=Down on the Farm
TTITLE5=Pleasure City
TTITLE6=Metropolis
EXTD=YEAR: 1972
EXTT0=
EXTT1=
EXTT2=
EXTT3=
EXTT4=
EXTT5=
EXTT6=
PLAYORDER=
